<mxfile host="app.diagrams.net" modified="2023-05-09T17:45:34.676Z" agent="Mozilla/5.0 (Windows NT 10.0; Win64; x64) AppleWebKit/537.36 (KHTML, like Gecko) Chrome/112.0.0.0 Safari/537.36" etag="LxVoCLRZhrsrT4X2kU9j" version="21.2.9" type="github">
  <diagram name="Page-1" id="hYXTnanG5P5eI5aRu3JL">
    <mxGraphModel dx="1050" dy="581" grid="1" gridSize="10" guides="1" tooltips="1" connect="1" arrows="1" fold="1" page="1" pageScale="1" pageWidth="827" pageHeight="1169" math="0" shadow="0">
      <root>
        <mxCell id="0" />
        <mxCell id="1" parent="0" />
        <mxCell id="0CcHJ5xWRyJ15fwOYRmY-2" value="User" style="swimlane;childLayout=stackLayout;horizontal=1;startSize=50;horizontalStack=0;rounded=1;fontSize=14;fontStyle=0;strokeWidth=2;resizeParent=0;resizeLast=1;shadow=0;dashed=0;align=left;arcSize=4;whiteSpace=wrap;html=1;spacing=22;" vertex="1" parent="1">
          <mxGeometry x="80" y="90" width="100" height="160" as="geometry" />
        </mxCell>
        <mxCell id="0CcHJ5xWRyJ15fwOYRmY-3" value="&lt;font style=&quot;font-size: 12px;&quot;&gt;+Id&lt;br&gt;+fullName&lt;/font&gt;&lt;div&gt;&lt;font style=&quot;font-size: 12px;&quot;&gt;+email&lt;/font&gt;&lt;/div&gt;&lt;div&gt;&lt;font style=&quot;font-size: 12px;&quot;&gt;+password&lt;/font&gt;&lt;/div&gt;&lt;div&gt;&lt;font style=&quot;font-size: 12px;&quot;&gt;+icon&lt;/font&gt;&lt;/div&gt;" style="align=left;strokeColor=none;fillColor=none;spacingLeft=4;fontSize=12;verticalAlign=top;resizable=0;rotatable=0;part=1;html=1;" vertex="1" parent="0CcHJ5xWRyJ15fwOYRmY-2">
          <mxGeometry y="50" width="100" height="110" as="geometry" />
        </mxCell>
      </root>
    </mxGraphModel>
  </diagram>
</mxfile>
